<svg width="65" height="51" viewBox="0 0 65 51" fill="none" xmlns="http://www.w3.org/2000/svg">
<path d="M51.956 29.457C51.062 29.457 50.1813 29.1152 49.4977 28.4316C40.1115 19.0586 24.8622 19.0586 15.476 28.4316C14.122 29.7856 11.9135 29.7856 10.5595 28.4316C9.20544 27.0776 9.20544 24.8691 10.5595 23.515C22.6537 11.4208 42.32 11.4208 54.4143 23.515C55.7683 24.8691 55.7683 27.0776 54.4143 28.4316C53.7307 29.1152 52.8368 29.457 51.956 29.457Z" fill="#7F8C98"/>
<path d="M42.5435 38.8563C41.6496 38.8563 40.7688 38.5145 40.0852 37.8309C38.0607 35.8065 35.3527 34.6891 32.4869 34.6891C29.621 34.6891 26.913 35.8065 24.8885 37.8309C23.5345 39.185 21.326 39.185 19.9719 37.8309C18.6179 36.4769 18.6179 34.2684 19.9719 32.9144C23.311 29.5753 27.7543 27.7349 32.4869 27.7349C37.2194 27.7349 41.6627 29.5753 45.0018 32.9275C46.3558 34.2815 46.3558 36.49 45.0018 37.8441C44.3313 38.5145 43.4374 38.8563 42.5435 38.8563Z" fill="#7F8C98"/>
<path d="M32.4868 50.083C35.0497 50.083 37.1273 48.0054 37.1273 45.4425C37.1273 42.8796 35.0497 40.802 32.4868 40.802C29.9239 40.802 27.8463 42.8796 27.8463 45.4425C27.8463 48.0054 29.9239 50.083 32.4868 50.083Z" fill="#7F8C98"/>
<path d="M61.513 19.8999C60.6191 19.8999 59.7383 19.5582 59.0548 18.8746C44.3971 4.23001 20.5767 4.23001 5.9321 18.8746C4.57807 20.2286 2.36955 20.2286 1.01552 18.8746C-0.338507 17.5205 -0.338507 15.312 1.01552 13.958C9.42891 5.5446 20.6029 0.917236 32.5 0.917236C44.3971 0.917236 55.5711 5.5446 63.9845 13.958C65.3385 15.312 65.3385 17.5205 63.9845 18.8746C63.2878 19.5582 62.3938 19.8999 61.513 19.8999Z" fill="#7F8C98"/>
</svg>
