<svg width="47" height="65" viewBox="0 0 47 65" fill="none" xmlns="http://www.w3.org/2000/svg">
<path d="M15.2382 27.9163C13.7403 27.9163 12.5271 29.1294 12.5271 30.6265C12.5271 32.1222 13.7403 33.3355 15.2382 33.3355C16.7341 33.3355 17.9474 32.1222 17.9474 30.6265C17.9472 29.1296 16.7339 27.9163 15.2382 27.9163Z" fill="#7F8C98"/>
<path d="M31.764 27.9163C30.2681 27.9163 29.0538 29.1294 29.0538 30.6265C29.0538 32.1222 30.2681 33.3355 31.764 33.3355C33.2608 33.3355 34.4741 32.1222 34.4741 30.6265C34.4741 29.1296 33.2608 27.9163 31.764 27.9163Z" fill="#7F8C98"/>
<path d="M41.2449 17.1106H5.7553C3.02771 17.1106 0.809082 19.3292 0.809082 22.0567V60.0538C0.809082 62.7813 3.02771 65 5.7553 65H41.2449C43.9734 65 46.191 62.7813 46.191 60.0538V22.0567C46.191 19.3292 43.9734 17.1106 41.2449 17.1106ZM14.655 61.8782C14.6632 61.8159 14.6913 61.7615 14.6913 61.697L15.2381 49.2931L15.7837 61.697C15.7837 61.7615 15.8119 61.8159 15.8201 61.8782H14.655ZM31.182 61.8782C31.1901 61.8159 31.2183 61.7615 31.2183 61.697L31.7639 49.2931L32.3097 61.697C32.3097 61.7615 32.3379 61.8159 32.3465 61.8782H31.182ZM43.0694 60.0538C43.0694 61.0602 42.2513 61.8782 41.2449 61.8782H35.0235C35.0316 61.8159 35.0598 61.7615 35.0598 61.697L35.6024 41.5211L36.0999 46.9403C36.1276 47.5229 36.6222 47.9724 37.2036 47.9436C37.7852 47.916 38.2346 47.4226 38.2069 46.8398V37.918C38.2069 34.184 33.6887 34.0008 31.7638 34.0008C29.84 34.0008 25.3218 34.184 25.3218 37.918V46.8398C25.2942 47.4224 25.7436 47.9159 26.3251 47.9436C26.9067 47.9723 27.4002 47.5229 27.4289 46.9403L27.9265 41.5211L28.4681 61.697C28.4681 61.7615 28.4963 61.8159 28.5051 61.8782H18.497C18.5057 61.8159 18.5338 61.7615 18.5338 61.697L19.0764 41.5211L19.573 46.9403C19.6006 47.5229 20.0952 47.9724 20.6767 47.9436C21.2583 47.916 21.7077 47.4226 21.68 46.8398V37.918C21.68 34.184 17.1619 34.0008 15.2381 34.0008C13.3142 34.0008 8.79494 34.184 8.79494 37.918V46.8398C8.76727 47.4224 9.21668 47.9159 9.79825 47.9436C10.3798 47.9723 10.8743 47.5229 10.902 46.9403L11.3996 41.5211L11.9422 61.697C11.9422 61.7615 11.9704 61.8159 11.9785 61.8782H5.75518C4.74971 61.8782 3.93061 61.0602 3.93061 60.0538V22.0567C3.93061 21.0503 4.74971 20.2322 5.75518 20.2322H41.2448C42.2511 20.2322 43.0692 21.0503 43.0692 22.0567L43.0694 60.0538Z" fill="#7F8C98"/>
<path d="M27.3666 8.98117L31.0749 5.27287V13.6101C31.0749 14.3708 31.6913 14.9873 32.4519 14.9873C33.2126 14.9873 33.8289 14.371 33.8289 13.6101V5.27287L37.5384 8.98117C37.8067 9.25057 38.1589 9.38463 38.5121 9.38463C38.8643 9.38463 39.2176 9.25057 39.4858 8.98117C40.0244 8.44365 40.0244 7.57136 39.4858 7.03282L33.4257 0.973731L32.452 0L31.4783 0.973731L25.4183 7.03282C24.8808 7.57136 24.8808 8.44365 25.4183 8.98117C25.9567 9.51869 26.8291 9.51869 27.3666 8.98117Z" fill="#7F8C98"/>
<path d="M14.2174 14.5838L15.1911 15.5575L16.1649 14.5838L22.2251 8.52354C22.7626 7.98603 22.7626 7.11373 22.2251 6.57621C21.6876 6.03869 20.8151 6.03869 20.2776 6.57621L16.5682 10.2845V1.9475C16.5682 1.1868 15.952 0.570312 15.1912 0.570312C14.4305 0.570312 13.8142 1.18667 13.8142 1.9475V10.2846L10.1059 6.57634C9.56837 6.03882 8.69607 6.03882 8.15741 6.57634C7.61989 7.11386 7.61989 7.98615 8.15741 8.52367L14.2174 14.5838Z" fill="#7F8C98"/>
</svg>
