<svg width="65" height="65" viewBox="0 0 65 65" fill="none" xmlns="http://www.w3.org/2000/svg">
<g clip-path="url(#clip0_73_1295)">
<path d="M51.956 36.457C51.062 36.457 50.1813 36.1152 49.4977 35.4316C40.1115 26.0586 24.8622 26.0586 15.476 35.4316C14.122 36.7856 11.9135 36.7856 10.5595 35.4316C9.20544 34.0776 9.20544 31.8691 10.5595 30.515C22.6537 18.4208 42.32 18.4208 54.4143 30.515C55.7683 31.8691 55.7683 34.0776 54.4143 35.4316C53.7307 36.1152 52.8368 36.457 51.956 36.457Z" fill="#29D281"/>
<path d="M42.5435 45.8563C41.6496 45.8563 40.7688 45.5145 40.0852 44.8309C38.0607 42.8065 35.3527 41.6891 32.4869 41.6891C29.621 41.6891 26.913 42.8065 24.8885 44.8309C23.5345 46.185 21.326 46.185 19.9719 44.8309C18.6179 43.4769 18.6179 41.2684 19.9719 39.9144C23.311 36.5753 27.7543 34.7349 32.4869 34.7349C37.2194 34.7349 41.6627 36.5753 45.0018 39.9275C46.3558 41.2815 46.3558 43.49 45.0018 44.8441C44.3313 45.5145 43.4374 45.8563 42.5435 45.8563Z" fill="#29D281"/>
<path d="M32.4868 57.083C35.0497 57.083 37.1273 55.0054 37.1273 52.4425C37.1273 49.8796 35.0497 47.802 32.4868 47.802C29.9239 47.802 27.8463 49.8796 27.8463 52.4425C27.8463 55.0054 29.9239 57.083 32.4868 57.083Z" fill="#29D281"/>
<path d="M61.513 26.8999C60.6191 26.8999 59.7383 26.5582 59.0548 25.8746C44.3971 11.23 20.5767 11.23 5.9321 25.8746C4.57807 27.2286 2.36955 27.2286 1.01552 25.8746C-0.338507 24.5205 -0.338507 22.312 1.01552 20.958C9.42891 12.5446 20.6029 7.91724 32.5 7.91724C44.3971 7.91724 55.5711 12.5446 63.9845 20.958C65.3385 22.312 65.3385 24.5205 63.9845 25.8746C63.2878 26.5582 62.3938 26.8999 61.513 26.8999Z" fill="#29D281"/>
</g>
<defs>
<clipPath id="clip0_73_1295">
<rect width="65" height="65" fill="white"/>
</clipPath>
</defs>
</svg>
