<svg width="65" height="65" viewBox="0 0 65 65" fill="none" xmlns="http://www.w3.org/2000/svg">
<g clip-path="url(#clip0_73_1393)">
<path d="M32.5 -0.253906C14.55 -0.253906 0 14.2961 0 32.2461C0 50.1961 14.55 64.7461 32.5 64.7461C50.45 64.7461 65 50.1961 65 32.2461C65 14.2961 50.45 -0.253906 32.5 -0.253906ZM32.5 59.668C17.3549 59.668 5.07812 47.3912 5.07812 32.2461C5.07812 17.101 17.3549 4.82422 32.5 4.82422C47.6451 4.82422 59.9219 17.101 59.9219 32.2461C59.9219 47.3912 47.6451 59.668 32.5 59.668Z" fill="#7F8C98"/>
<path d="M32.5 15.9961C23.5259 15.9961 16.25 23.272 16.25 32.2461C16.25 41.2202 23.5259 48.4961 32.5 48.4961C41.4741 48.4961 48.75 41.2202 48.75 32.2461C48.75 23.272 41.4741 15.9961 32.5 15.9961ZM32.5 40.3711C31.3772 40.3711 30.4688 39.4626 30.4688 38.3398C30.4688 37.2171 31.3772 36.3086 32.5 36.3086C33.6228 36.3086 34.5312 37.2171 34.5312 38.3398C34.5312 39.4626 33.6228 40.3711 32.5 40.3711ZM33.5156 34.2773H31.4844L30.4688 24.1211H34.5312L33.5156 34.2773Z" fill="#7F8C98"/>
</g>
<defs>
<clipPath id="clip0_73_1393">
<rect width="65" height="65" fill="white"/>
</clipPath>
</defs>
</svg>
