<svg width="15" height="12" viewBox="0 0 15 12" fill="none" xmlns="http://www.w3.org/2000/svg">
<path d="M0 1.41037V1C0 0.734784 0.0987721 0.48043 0.274587 0.292893C0.450403 0.105357 0.68886 0 0.9375 0L14.0625 0C14.3111 0 14.5496 0.105357 14.7254 0.292893C14.9012 0.48043 15 0.734784 15 1V1.41037L7.5 6.41038L0 1.41037ZM7.74844 7.42413C7.67392 7.47374 7.58784 7.50004 7.5 7.50004C7.41216 7.50004 7.32608 7.47374 7.25156 7.42413L0 2.58962V11C0 11.2652 0.0987721 11.5196 0.274587 11.7071C0.450403 11.8946 0.68886 12 0.9375 12H14.0625C14.3111 12 14.5496 11.8946 14.7254 11.7071C14.9012 11.5196 15 11.2652 15 11V2.58962L7.74844 7.42413Z" fill="url(#paint0_linear_21_1375)"/>
<defs>
<linearGradient id="paint0_linear_21_1375" x1="-1.15753e-07" y1="10.5333" x2="15.3275" y2="9.98699" gradientUnits="userSpaceOnUse">
<stop stop-color="#0066FF"/>
<stop offset="1" stop-color="#004FC6"/>
</linearGradient>
</defs>
</svg>
