<svg width="15" height="15" viewBox="0 0 15 15" fill="none" xmlns="http://www.w3.org/2000/svg">
<path d="M5.25 7.1875C5.84334 7.1875 6.42336 7.00422 6.91671 6.66084C7.41006 6.31746 7.79458 5.82941 8.02164 5.25839C8.2487 4.68737 8.30811 4.05903 8.19236 3.45284C8.0766 2.84665 7.79088 2.28983 7.37132 1.85279C6.95176 1.41575 6.41721 1.11813 5.83527 0.997547C5.25333 0.876969 4.65013 0.938854 4.10195 1.17538C3.55377 1.4119 3.08524 1.81244 2.75559 2.32634C2.42595 2.84025 2.25 3.44443 2.25 4.0625C2.25 4.8913 2.56607 5.68616 3.12868 6.27221C3.69129 6.85826 4.45435 7.1875 5.25 7.1875ZM11.25 8.75C11.695 8.75 12.13 8.61254 12.5 8.35501C12.87 8.09747 13.1584 7.73143 13.3287 7.30317C13.499 6.8749 13.5436 6.40365 13.4568 5.94901C13.37 5.49437 13.1557 5.07675 12.841 4.74897C12.5263 4.42119 12.1254 4.19797 11.689 4.10754C11.2525 4.0171 10.8001 4.06352 10.389 4.24091C9.97783 4.4183 9.62643 4.71871 9.37919 5.10413C9.13196 5.48956 9 5.9427 9 6.40625C9 7.02785 9.23705 7.62399 9.65901 8.06353C10.081 8.50307 10.6533 8.75 11.25 8.75ZM14.25 14.2188C14.4489 14.2188 14.6397 14.1364 14.7803 13.9899C14.921 13.8434 15 13.6447 15 13.4375C14.9994 12.7073 14.8023 11.992 14.4312 11.3726C14.0601 10.7532 13.5297 10.2545 12.9003 9.93318C12.2708 9.61186 11.5675 9.48074 10.8702 9.55469C10.1728 9.62864 9.50935 9.90471 8.955 10.3516C8.22038 9.58934 7.28554 9.07078 6.26837 8.86127C5.25119 8.65176 4.19724 8.76069 3.23942 9.17432C2.2816 9.58796 1.46281 10.2878 0.886306 11.1855C0.309802 12.0832 0.00140265 13.1387 0 14.2188C0 14.426 0.0790176 14.6247 0.21967 14.7712C0.360322 14.9177 0.551088 15 0.75 15H9.75C9.94891 15 10.1397 14.9177 10.2803 14.7712C10.421 14.6247 10.5 14.426 10.5 14.2188" fill="url(#paint0_linear_21_1280)"/>
<defs>
<linearGradient id="paint0_linear_21_1280" x1="-1.15753e-07" y1="13.2812" x2="15.3328" y2="12.8149" gradientUnits="userSpaceOnUse">
<stop stop-color="#0066FF"/>
<stop offset="1" stop-color="#004FC6"/>
</linearGradient>
</defs>
</svg>
