<svg width="17" height="17" viewBox="0 0 17 17" fill="none" xmlns="http://www.w3.org/2000/svg">
<path d="M10.8457 15.6179C12.3441 15.1241 13.6484 14.1701 14.5728 12.8917C15.4973 11.6133 15.9948 10.0758 15.9944 8.49822C15.9948 6.92061 15.4973 5.38312 14.5728 4.10475C13.6484 2.82638 12.3441 1.87235 10.8457 1.37856M10.8457 15.6179C9.32264 16.1226 7.67736 16.1226 6.15426 15.6179C4.65487 15.1251 3.34935 14.1714 2.42382 12.893C1.49829 11.6145 1 10.0765 1 8.49822C1 6.91992 1.49829 5.3819 2.42382 4.10345C3.34935 2.825 4.65487 1.87139 6.15426 1.37856C7.67736 0.873813 9.32264 0.873813 10.8457 1.37856M10.8457 15.6179C12.3451 15.1251 13.6507 14.1714 14.5762 12.893C15.5017 11.6145 16 10.0765 16 8.49822C16 6.91992 15.5017 5.3819 14.5762 4.10345C13.6507 2.825 12.3451 1.87139 10.8457 1.37856M8.5 1.37856V15.6179M2.79678 3.62688C3.49518 3.97976 4.22539 4.26582 4.97764 4.48123C6.1215 4.81798 7.3076 4.98959 8.5 4.99085C9.65957 4.99024 10.8135 4.82882 11.9287 4.51121C12.7045 4.28692 13.4573 3.98956 14.177 3.62313M2.92044 13.5007C3.6085 13.1627 4.32593 12.888 5.06383 12.6801C8.06176 11.8407 11.264 12.1369 14.0571 13.512M1.38034 8.49822H15.6197M10.5572 1.37856L10.6172 1.48348C11.8586 3.60053 12.513 6.01032 12.513 8.4645C12.513 10.9187 11.8586 13.3285 10.6172 15.4455M6.34537 1.37856L6.28541 1.48348C5.04532 3.60168 4.39325 6.01255 4.39654 8.46704C4.39983 10.9215 5.05838 13.3307 6.30415 15.4455" stroke="url(#paint0_linear_21_1365)" stroke-linecap="round" stroke-linejoin="round"/>
<defs>
<linearGradient id="paint0_linear_21_1365" x1="1" y1="14.1635" x2="16.3345" y2="13.7262" gradientUnits="userSpaceOnUse">
<stop stop-color="#0066FF"/>
<stop offset="1" stop-color="#004FC6"/>
</linearGradient>
</defs>
</svg>
