<svg width="33" height="30" viewBox="0 0 33 30" fill="none" xmlns="http://www.w3.org/2000/svg">
<path d="M16.0245 0.463523C16.1741 0.00286794 16.8259 0.00287008 16.9755 0.463525L20.3167 10.7467C20.3837 10.9527 20.5757 11.0922 20.7923 11.0922L31.6046 11.0922C32.089 11.0922 32.2904 11.712 31.8985 11.9967L23.1511 18.3521C22.9759 18.4794 22.9026 18.7051 22.9695 18.9111L26.3107 29.1943C26.4604 29.6549 25.9331 30.038 25.5413 29.7533L16.7939 23.3979C16.6186 23.2706 16.3814 23.2706 16.2061 23.3979L7.45871 29.7533C7.06685 30.038 6.53961 29.6549 6.68929 29.1943L10.0305 18.9111C10.0974 18.7051 10.0241 18.4794 9.84886 18.3521L1.10146 11.9967C0.709601 11.712 0.91099 11.0922 1.39535 11.0922L12.2077 11.0922C12.4243 11.0922 12.6163 10.9527 12.6833 10.7467L16.0245 0.463523Z" fill="#B6C9DA"/>
</svg>
