<svg width="11" height="15" viewBox="0 0 11 15" fill="none" xmlns="http://www.w3.org/2000/svg">
<path d="M5.54203 0C2.65574 0 0.307617 2.33538 0.307617 5.20567C0.307617 7.96856 5.05689 14.4237 5.25911 14.697L5.44784 14.9524C5.46991 14.9824 5.50505 15 5.54203 15C5.57958 15 5.61449 14.9824 5.63679 14.9524L5.82541 14.697C6.02774 14.4237 10.7769 7.96856 10.7769 5.20567C10.7769 2.33538 8.42839 0 5.54203 0ZM5.54203 3.34101C6.5762 3.34101 7.41714 4.1773 7.41714 5.20567C7.41714 6.2335 6.57616 7.07033 5.54203 7.07033C4.50847 7.07033 3.66692 6.2335 3.66692 5.20567C3.66692 4.1773 4.50844 3.34101 5.54203 3.34101Z" fill="url(#paint0_linear_30_565)"/>
<defs>
<linearGradient id="paint0_linear_30_565" x1="0.307617" y1="13.1667" x2="11.0148" y2="12.9536" gradientUnits="userSpaceOnUse">
<stop stop-color="#0066FF"/>
<stop offset="1" stop-color="#004FC6"/>
</linearGradient>
</defs>
</svg>
