<svg width="11" height="15" viewBox="0 0 11 15" fill="none" xmlns="http://www.w3.org/2000/svg">
<path d="M5.49968 0C2.62948 0 0.294434 2.33538 0.294434 5.20567C0.294434 7.96856 5.01725 14.4237 5.21834 14.697L5.40602 14.9524C5.42797 14.9824 5.46292 15 5.49968 15C5.53702 15 5.57175 14.9824 5.59392 14.9524L5.78148 14.697C5.98269 14.4237 10.7054 7.96856 10.7054 5.20567C10.7054 2.33538 8.36997 0 5.49968 0ZM5.49968 3.34101C6.52809 3.34101 7.36435 4.1773 7.36435 5.20567C7.36435 6.2335 6.52805 7.07033 5.49968 7.07033C4.47189 7.07033 3.63502 6.2335 3.63502 5.20567C3.63502 4.1773 4.47185 3.34101 5.49968 3.34101Z" fill="#7F8C98"/>
</svg>
