<svg width="23" height="25" viewBox="0 0 23 25" fill="none" xmlns="http://www.w3.org/2000/svg">
<path d="M21.9764 6.43705C21.9636 5.76208 21.9514 5.12445 21.9514 4.50759C21.9514 4.02432 21.5597 3.63252 21.0763 3.63252C17.3339 3.63252 14.4846 2.55701 12.1096 0.247774C11.7698 -0.0826498 11.2291 -0.0825331 10.8895 0.247774C8.51469 2.55701 5.66583 3.63252 1.9237 3.63252C1.44044 3.63252 1.04864 4.02432 1.04864 4.50759C1.04864 5.12457 1.03651 5.76243 1.02355 6.43751C0.903612 12.7188 0.739335 21.3214 11.2129 24.9518C11.3058 24.984 11.4026 25.0001 11.4995 25.0001C11.5963 25.0001 11.6933 24.984 11.786 24.9518C22.2604 21.3213 22.0964 12.7185 21.9764 6.43705Z" fill="#29D281"/>
<path d="M14.5127 9.46011L10.2892 13.6834L8.48693 11.8811C8.14519 11.5395 7.5911 11.5395 7.24947 11.8811C6.90773 12.223 6.90773 12.7769 7.24947 13.1187L9.67048 15.5397C9.84129 15.7105 10.0653 15.7959 10.2892 15.7959C10.5131 15.7959 10.7371 15.7105 10.9079 15.5397L15.7501 10.6977C16.0919 10.3559 16.0919 9.80185 15.7502 9.46022C15.4086 9.11848 14.8545 9.11836 14.5127 9.46011Z" fill="white"/>
</svg>
