<svg width="15" height="15" viewBox="0 0 15 15" fill="none" xmlns="http://www.w3.org/2000/svg">
<path d="M7.5 0C3.36425 0 0 3.36425 0 7.5C0 11.6358 3.36425 15 7.5 15C11.6358 15 15 11.6358 15 7.5C15 3.36425 11.6358 0 7.5 0Z" fill="url(#paint0_linear_418_2481)"/>
<path d="M9.87228 9.22442L9.87256 9.22464C9.90854 9.25158 9.91504 9.30187 9.889 9.33646L9.887 9.33914C9.87251 9.35865 9.85074 9.37018 9.82309 9.37018C9.80617 9.37018 9.79021 9.36532 9.77512 9.354L9.7751 9.35399L7.45133 7.61114L7.45031 7.61038C7.43139 7.59627 7.41895 7.57276 7.41895 7.54638V4.06069C7.41895 4.01557 7.45478 3.97974 7.4999 3.97974C7.54503 3.97974 7.58086 4.01557 7.58086 4.06069V7.25587V7.50587L7.78086 7.65587L9.87228 9.22442Z" stroke="#E7F0F8"/>
<defs>
<linearGradient id="paint0_linear_418_2481" x1="-1.15753e-07" y1="13.1667" x2="15.3345" y2="12.7294" gradientUnits="userSpaceOnUse">
<stop stop-color="#0066FF"/>
<stop offset="1" stop-color="#004FC6"/>
</linearGradient>
</defs>
</svg>
