<svg width="35" height="35" viewBox="0 0 35 35" fill="none" xmlns="http://www.w3.org/2000/svg">
<g clip-path="url(#clip0_26_1067)">
<path d="M17.5044 0H17.4956C7.84656 0 0 7.84875 0 17.5C0 21.3281 1.23375 24.8762 3.33156 27.7572L1.15062 34.2584L7.87719 32.1081C10.6444 33.9412 13.9453 35 17.5044 35C27.1534 35 35 27.1491 35 17.5C35 7.85094 27.1534 0 17.5044 0Z" fill="#4CAF50"/>
<path d="M27.6872 24.7123C27.265 25.9045 25.5894 26.8932 24.2528 27.182C23.3385 27.3767 22.1441 27.532 18.1235 25.8651C12.9806 23.7345 9.66877 18.5085 9.41064 18.1695C9.16346 17.8304 7.33252 15.4023 7.33252 12.891C7.33252 10.3798 8.60783 9.15696 9.12189 8.63196C9.54408 8.20103 10.2419 8.00415 10.9113 8.00415C11.1278 8.00415 11.3225 8.01509 11.4975 8.02384C12.0116 8.04571 12.2697 8.07634 12.6088 8.8879C13.031 9.90509 14.0591 12.4163 14.1816 12.6745C14.3063 12.9326 14.431 13.2826 14.256 13.6217C14.0919 13.9717 13.9475 14.127 13.6894 14.4245C13.4313 14.722 13.1863 14.9495 12.9281 15.2688C12.6919 15.5467 12.425 15.8442 12.7225 16.3582C13.02 16.8613 14.0481 18.5391 15.5619 19.8867C17.5153 21.6257 19.0991 22.1813 19.6656 22.4176C20.0878 22.5926 20.591 22.551 20.8994 22.2229C21.291 21.8007 21.7744 21.1007 22.2666 20.4117C22.6166 19.9173 23.0585 19.856 23.5222 20.031C23.9947 20.1951 26.495 21.431 27.0091 21.687C27.5231 21.9451 27.8622 22.0676 27.9869 22.2842C28.1094 22.5007 28.1094 23.5179 27.6872 24.7123Z" fill="#FAFAFA"/>
</g>
<defs>
<clipPath id="clip0_26_1067">
<rect width="35" height="35" fill="white"/>
</clipPath>
</defs>
</svg>
