<svg width="35" height="35" viewBox="0 0 35 35" fill="none" xmlns="http://www.w3.org/2000/svg">
<g clip-path="url(#clip0_26_1035)">
<path d="M17.5 35C27.165 35 35 27.165 35 17.5C35 7.83502 27.165 0 17.5 0C7.83502 0 0 7.83502 0 17.5C0 27.165 7.83502 35 17.5 35Z" fill="#039BE5"/>
<path d="M8.00748 17.1209L24.8804 10.6153C25.6635 10.3323 26.3475 10.8063 26.0937 11.9905L26.0952 11.989L23.2223 25.5238C23.0094 26.4834 22.4391 26.7167 21.6414 26.2646L17.2664 23.0403L15.1562 25.0732C14.9229 25.3065 14.726 25.5034 14.2739 25.5034L14.5846 21.0511L22.6929 13.7259C23.0458 13.4153 22.6141 13.2403 22.1489 13.5494L12.1287 19.8582L7.80915 18.5107C6.87144 18.2132 6.85102 17.573 8.00748 17.1209Z" fill="white"/>
</g>
<defs>
<clipPath id="clip0_26_1035">
<rect width="35" height="35" fill="white"/>
</clipPath>
</defs>
</svg>
