<svg width="32" height="30" viewBox="0 0 32 30" fill="none" xmlns="http://www.w3.org/2000/svg">
<path d="M24.6152 0.5C23.9373 0.5 23.3844 1.05288 23.3844 1.73077V7.61539L16.8844 1.11538C16.4037 0.634615 15.596 0.634615 15.1152 1.11538L0.69212 15.5769C0.211351 16.0577 0.211351 16.8269 0.69212 17.3077C1.17289 17.7885 1.94212 17.7885 2.42289 17.3077L15.9998 3.73077L29.6152 17.3462C29.8556 17.5865 30.1825 17.7308 30.4998 17.7308C30.8171 17.7308 31.1056 17.5865 31.346 17.3462C31.8267 16.8654 31.8267 16.0962 31.346 15.6154L27.0767 11.3462V1.73077C27.0767 1.05288 26.5239 0.5 25.846 0.5H24.6152ZM15.9998 6L2.46135 19.5385V26.3077C2.46135 28.3462 4.1152 30 6.15366 30H25.846C27.8844 30 29.5383 28.3462 29.5383 26.3077V19.5385L15.9998 6ZM13.5383 17.6923H18.4614C19.1392 17.6923 19.6921 18.2452 19.6921 18.9231V26.3077C19.6921 26.9856 19.1392 27.5385 18.4614 27.5385H13.5383C12.8604 27.5385 12.3075 26.9856 12.3075 26.3077V18.9231C12.3075 18.2452 12.8604 17.6923 13.5383 17.6923Z" fill="url(#paint0_linear_401_1071)"/>
<defs>
<linearGradient id="paint0_linear_401_1071" x1="0.331543" y1="26.3944" x2="32.4027" y2="25.4218" gradientUnits="userSpaceOnUse">
<stop stop-color="#0066FF"/>
<stop offset="1" stop-color="#004FC6"/>
</linearGradient>
</defs>
</svg>
