<svg width="20" height="20" viewBox="0 0 20 20" fill="none" xmlns="http://www.w3.org/2000/svg">
<path d="M9.99991 0C6.17296 0 3.05957 3.11385 3.05957 6.94089C3.05957 10.6247 9.35666 19.2316 9.62478 19.596L9.87502 19.9366C9.90428 19.9766 9.95088 20 9.99991 20C10.0497 20 10.096 19.9766 10.1256 19.9366L10.3756 19.596C10.6439 19.2316 16.9408 10.6247 16.9408 6.94089C16.9408 3.11385 13.827 0 9.99991 0ZM9.99991 4.45468C11.3711 4.45468 12.4861 5.56973 12.4861 6.94089C12.4861 8.31134 11.3711 9.4271 9.99991 9.4271C8.62951 9.4271 7.51369 8.31134 7.51369 6.94089C7.51369 5.56973 8.62946 4.45468 9.99991 4.45468Z" fill="#0066FF"/>
</svg>
