<svg width="15" height="15" viewBox="0 0 15 15" fill="none" xmlns="http://www.w3.org/2000/svg">
<path d="M11.8546 9.29201C11.5475 8.97226 11.1771 8.8013 10.7845 8.8013C10.3951 8.8013 10.0215 8.96909 9.70178 9.28884L8.70137 10.2861C8.61906 10.2418 8.53675 10.2006 8.4576 10.1595C8.34363 10.1025 8.23599 10.0486 8.14418 9.99166C7.20709 9.39648 6.35547 8.62085 5.53868 7.61727C5.14295 7.11707 4.87702 6.69601 4.6839 6.26862C4.9435 6.03118 5.18411 5.78424 5.41838 5.54681C5.50703 5.45816 5.59567 5.36635 5.68431 5.27771C6.34914 4.61288 6.34914 3.75177 5.68431 3.08694L4.82004 2.22266C4.72189 2.12452 4.62059 2.02321 4.52561 1.9219C4.33566 1.72562 4.13621 1.52301 3.93043 1.33306C3.62334 1.02913 3.2561 0.867676 2.86987 0.867676C2.48364 0.867676 2.11007 1.02913 1.79348 1.33306C1.79032 1.33622 1.79032 1.33622 1.78715 1.33939L0.710759 2.42528C0.30553 2.8305 0.0744228 3.32438 0.0237692 3.8974C-0.0522113 4.82183 0.220052 5.68294 0.428998 6.24646C0.941866 7.62994 1.708 8.91211 2.85088 10.2861C4.23752 11.9418 5.90592 13.2493 7.81177 14.1706C8.53991 14.5157 9.51183 14.9241 10.5977 14.9937C10.6642 14.9969 10.7338 15 10.7972 15C11.5285 15 12.1427 14.7373 12.6239 14.2149C12.627 14.2086 12.6334 14.2054 12.6365 14.1991C12.8012 13.9996 12.9911 13.8192 13.1906 13.6261C13.3267 13.4963 13.466 13.3601 13.6021 13.2177C13.9155 12.8916 14.0802 12.5117 14.0802 12.1223C14.0802 11.7297 13.9124 11.353 13.5926 11.0364L11.8546 9.29201Z" fill="url(#paint0_linear_401_1083)"/>
<defs>
<linearGradient id="paint0_linear_401_1083" x1="0.0107421" y1="13.2727" x2="14.394" y2="12.8644" gradientUnits="userSpaceOnUse">
<stop stop-color="#0066FF"/>
<stop offset="1" stop-color="#004FC6"/>
</linearGradient>
</defs>
</svg>
