<svg width="33" height="33" viewBox="0 0 33 33" fill="none" xmlns="http://www.w3.org/2000/svg">
<path d="M27.661 19.6813C26.9444 18.9352 26.0802 18.5363 25.1642 18.5363C24.2556 18.5363 23.3839 18.9278 22.6378 19.6739L20.3035 22.0008C20.1115 21.8974 19.9194 21.8014 19.7347 21.7054C19.4688 21.5724 19.2176 21.4468 19.0034 21.3138C16.8169 19.9251 14.8298 18.1153 12.9239 15.7736C12.0005 14.6065 11.38 13.624 10.9294 12.6267C11.5352 12.0727 12.0966 11.4965 12.6432 10.9425C12.8501 10.7357 13.0569 10.5214 13.2637 10.3146C14.815 8.76334 14.815 6.75408 13.2637 5.20282L11.2471 3.18617C11.0181 2.95717 10.7817 2.72079 10.5601 2.4844C10.1169 2.02641 9.65149 1.55364 9.17133 1.11042C8.45479 0.401273 7.5979 0.0245361 6.69669 0.0245361C5.79548 0.0245361 4.92381 0.401273 4.18511 1.11042C4.17773 1.11781 4.17773 1.11781 4.17034 1.1252L1.65876 3.65894C0.713229 4.60447 0.173979 5.75684 0.055787 7.09389C-0.121501 9.25089 0.51378 11.2601 1.00132 12.575C2.19801 15.8031 3.98567 18.7949 6.65237 22.0008C9.88787 25.8642 13.7808 28.9151 18.2278 31.0647C19.9268 31.8698 22.1946 32.8228 24.7283 32.9853C24.8835 32.9927 25.046 33.0001 25.1937 33.0001C26.9001 33.0001 28.3332 32.3869 29.456 31.1681C29.4634 31.1533 29.4782 31.1459 29.4856 31.1312C29.8697 30.6658 30.3129 30.2447 30.7783 29.7941C31.0959 29.4912 31.4209 29.1736 31.7386 28.8412C32.4699 28.0803 32.854 27.1939 32.854 26.2853C32.854 25.3693 32.4625 24.4902 31.7164 23.7515L27.661 19.6813Z" fill="url(#paint0_linear_74_1574)"/>
<defs>
<linearGradient id="paint0_linear_74_1574" x1="0.0253904" y1="28.9697" x2="33.5863" y2="28.017" gradientUnits="userSpaceOnUse">
<stop stop-color="#0066FF"/>
<stop offset="1" stop-color="#004FC6"/>
</linearGradient>
</defs>
</svg>
